<svg width="52" height="52" viewBox="0 0 52 52" fill="none" xmlns="http://www.w3.org/2000/svg">
<path d="M13.7608 7.16273C14.9113 9.44927 15.971 11.5995 17.0609 13.7195C17.4394 14.4615 18.0903 14.9006 18.9078 15.1126C20.2702 15.4761 21.6478 15.8395 23.0103 16.2029C25.6292 16.9146 27.2793 18.5955 27.9302 21.2303C28.5357 23.6683 29.111 26.1062 29.7317 28.5442C30.1858 30.3008 32.6079 31.8605 34.3337 31.5576C35.3328 31.3759 36.0443 30.8005 36.4985 29.907C36.9678 28.9985 37.4068 28.0748 37.8761 27.1814C38.7995 25.3945 40.2376 24.2134 42.1905 23.6985C43.9617 23.2443 45.7328 22.8051 47.5191 22.366C47.6705 22.3357 47.8068 22.2903 48.0793 22.2146C47.7916 21.1394 47.5343 20.0643 47.2164 19.0043C47.0196 18.3532 46.7471 17.7323 46.5049 17.0963C46.1113 16.0515 46.5049 15.0369 47.4737 14.6432C48.4274 14.2495 49.4417 14.7189 49.8807 15.7335C56.375 30.8156 47.3072 48.154 31.1849 51.4702C17.2123 54.3473 3.23968 45.2314 0.560204 31.1942C-1.39263 20.9577 1.78641 12.3415 9.82483 5.67874C14.4117 1.87793 19.8161 0.0759505 25.7806 0.000237051C26.9462 -0.0149056 27.7788 0.696801 27.8091 1.74165C27.8394 2.81678 27.0371 3.6042 25.8411 3.61934C22.8892 3.64962 20.0583 4.19476 17.3637 5.36075C16.1526 5.89074 15.0021 6.54188 13.7608 7.16273ZM48.3063 25.9548C48.1852 25.9699 48.049 25.9699 47.9279 26.0002C46.3535 26.3939 44.7791 26.7877 43.2047 27.1814C42.2208 27.4236 41.5244 27.9991 41.0702 28.8925C40.6161 29.8162 40.1771 30.7702 39.6775 31.6787C38.3454 34.0713 36.2865 35.2524 33.5465 35.2373C30.8973 35.2221 26.704 32.5267 26.0833 29.0439C25.6746 26.7422 24.9783 24.5011 24.4484 22.2297C24.1154 20.8214 23.2676 20.0037 21.89 19.6554C20.6487 19.3375 19.4074 19.0043 18.166 18.6863C16.0921 18.1563 14.5783 16.9298 13.6245 14.9915C12.8373 13.4015 12.035 11.8115 11.2478 10.2367C11.1267 10.0096 11.0056 9.78241 10.8694 9.50984C6.47927 13.6892 4.07229 18.7015 3.67869 24.6828C3.66355 24.8645 3.86035 25.122 4.02687 25.228C6.22192 26.6211 8.43211 27.9991 10.6423 29.3771C11.5052 29.9222 12.4589 30.2099 13.4883 30.2099C14.109 30.2099 14.7296 30.2099 15.3654 30.2099C18.1812 30.2705 20.5276 31.3305 22.3745 33.4807C23.1314 34.3741 23.9034 35.2524 24.6603 36.1458C26.8705 38.7352 27.5366 41.6729 26.598 44.974C26.2801 46.0794 25.9774 47.1849 25.6595 48.2903C37.8609 48.7748 48.6091 38.2355 48.3063 25.9548ZM21.9809 47.9571C22.3745 46.5489 22.7983 45.1406 23.1768 43.7323C23.6764 41.9001 23.313 40.2495 22.1171 38.7807C21.2694 37.7358 20.3914 36.7364 19.4982 35.7218C18.5293 34.6316 17.3183 33.9956 15.8499 33.8744C15.1535 33.829 14.4571 33.8139 13.7608 33.829C11.8534 33.8593 10.1125 33.3293 8.5078 32.3147C7.14536 31.4365 5.75263 30.5885 4.37505 29.7253C4.23881 29.6345 4.10256 29.5739 3.9209 29.4831C5.31362 38.9927 13.125 46.5186 21.9809 47.9571Z" fill="#DFB760"/>
<path d="M38.1022 -0.000160407C42.795 0.0149823 46.5493 3.89151 46.3828 8.55546C46.3223 10.0546 45.7319 11.4174 45.0204 12.7046C43.5065 15.4151 41.5234 17.7622 39.3738 19.973C38.6623 20.715 37.5723 20.7605 36.876 20.0488C34.3782 17.4745 32.062 14.7337 30.5179 11.4477C27.9747 6.05692 32.2891 -0.0758739 38.1022 -0.000160407ZM38.087 16.0814C39.7977 14.022 41.5083 12.0383 42.5226 9.57002C42.8253 8.82803 42.8556 8.05575 42.6588 7.28347C42.1895 5.45121 41.0541 4.22465 39.2073 3.77037C37.3301 3.31609 35.7103 3.84608 34.4841 5.33007C33.2882 6.78376 33.0308 8.40403 33.8786 10.1454C34.9383 12.326 36.4672 14.2037 38.087 16.0814Z" fill="#DFB760"/>
</svg>
