<svg width="47" height="46" viewBox="0 0 47 46" fill="none" xmlns="http://www.w3.org/2000/svg">
<path d="M45.4764 22.9056C45.4764 35.1671 35.463 45.1156 23.1004 45.1156C10.7377 45.1156 0.724347 35.1671 0.724347 22.9056C0.724347 10.644 10.7377 0.695539 23.1004 0.695539C35.463 0.695539 45.4764 10.644 45.4764 22.9056Z" stroke="white" stroke-width="1.39108"/>
<path d="M18.4046 13.5933L15.8091 17.22V29.9135C15.8091 30.3944 15.9914 30.8556 16.3159 31.1957C16.6404 31.5358 17.0805 31.7268 17.5394 31.7268H29.652C30.1109 31.7268 30.5511 31.5358 30.8756 31.1957C31.2001 30.8556 31.3824 30.3944 31.3824 29.9135V17.22L28.7868 13.5933H18.4046Z" stroke="white" stroke-width="1.39108" stroke-linecap="round" stroke-linejoin="round"/>
<path d="M15.8091 17.2202H31.3824" stroke="white" stroke-width="1.39108" stroke-linecap="round" stroke-linejoin="round"/>
<path d="M27.0562 20.8472C27.0562 21.809 26.6916 22.7315 26.0426 23.4116C25.3936 24.0918 24.5133 24.4739 23.5955 24.4739C22.6777 24.4739 21.7974 24.0918 21.1484 23.4116C20.4994 22.7315 20.1348 21.809 20.1348 20.8472" stroke="white" stroke-width="1.39108" stroke-linecap="round" stroke-linejoin="round"/>
</svg>
