<svg width="62" height="56" viewBox="0 0 62 56" fill="none" xmlns="http://www.w3.org/2000/svg">
<mask id="path-1-outside-1_230_914" maskUnits="userSpaceOnUse" x="0.487793" y="-0.160278" width="62" height="56" fill="black">
<rect fill="white" x="0.487793" y="-0.160278" width="62" height="56"/>
<path d="M1.48779 26.0583C1.5653 25.8729 1.64281 25.672 1.72032 25.4866C2.24739 24.065 3.56506 23.1069 5.08425 23.0606C5.73533 23.0451 6.40192 23.0606 7.02199 23.0606C7.19252 18.394 9.96737 15.4735 13.6103 13.1403C13.7343 13.063 13.8739 12.9857 13.8739 12.9857C13.7343 11.4096 13.5018 9.92618 13.5018 8.44277C13.5018 7.54654 13.7343 6.60395 14.0599 5.75408C15.0985 3.06539 17.5788 1.90647 20.5397 2.64818C22.3379 3.09629 23.8881 4.02343 25.2988 5.1978C25.4538 5.33687 25.6244 5.47594 25.7639 5.58411C26.632 4.79604 27.4381 3.96162 28.3527 3.25082C30.1199 1.87557 32.0732 0.871172 34.383 0.840268C36.7548 0.809363 38.5995 2.0919 39.3901 4.33247C39.8397 5.58411 39.9482 6.88209 39.8086 8.21099C39.7776 8.44277 39.7621 8.6591 39.7466 8.92179C40.2582 8.9836 40.7388 8.99905 41.2038 9.09176C42.9866 9.44717 44.1647 10.5443 44.8313 12.1822C44.9708 12.5222 45.1413 12.6458 45.4824 12.6921C48.5828 13.2175 50.9236 15.01 52.8768 17.3433C54.2565 18.9812 55.2641 20.8046 55.4656 23.076C58.039 22.8134 60.2867 23.2151 61.0463 26.1665C61.0463 26.5837 61.0463 27.0164 61.0463 27.4336C60.9843 27.5726 60.9223 27.7117 60.8758 27.8508C60.4728 29.0406 59.6822 29.8596 58.473 30.2459C58.101 30.354 57.9614 30.5704 57.8529 30.8949C56.8298 33.9699 55.7912 37.0294 54.7835 40.1044C53.7914 43.1176 52.0397 45.5591 49.4199 47.3824C47.8852 48.4641 46.18 49.1594 44.3352 49.5766C44.3197 49.7775 44.3197 49.9475 44.3042 50.1175C44.1802 52.5126 42.2115 54.475 39.8086 54.4904C34.1349 54.5214 28.4612 54.5214 22.772 54.4904C20.6017 54.475 18.7725 52.8834 18.3694 50.751C18.2919 50.3647 18.2764 49.9629 18.2299 49.5766C18.0904 49.5303 17.9819 49.4994 17.8579 49.4685C12.8197 48.1396 9.48681 44.9873 7.81259 40.1044C6.78946 37.1221 5.78184 34.1244 4.80521 31.1267C4.63469 30.6167 4.40216 30.354 3.8906 30.1841C2.83646 29.8132 2.12337 29.0406 1.73582 27.9744C1.67382 27.8044 1.59631 27.6345 1.5188 27.449C1.48779 26.9855 1.48779 26.5219 1.48779 26.0583ZM6.52593 30.4777C6.58794 30.7094 6.64995 30.8949 6.69645 31.0649C7.65757 33.9235 8.60319 36.7976 9.57982 39.6563C11.3315 44.8173 15.8116 48.0314 21.2838 48.0314C27.9341 48.0314 34.569 48.0314 41.2193 48.0314C46.6605 48.0314 51.1561 44.8328 52.8923 39.7027C53.8689 36.7976 54.8456 33.8926 55.8067 31.003C55.8532 30.8485 55.8997 30.6785 55.9617 30.4777C39.4831 30.4777 23.051 30.4777 6.52593 30.4777ZM31.2826 24.8994C22.7565 24.8994 14.2304 24.8994 5.70433 24.8994C5.5183 24.8994 5.31678 24.8994 5.13075 24.8994C4.20064 24.9458 3.44104 25.6875 3.36353 26.5837C3.28602 27.5108 3.9371 28.3916 4.88272 28.5616C5.14626 28.6079 5.42529 28.5925 5.68883 28.5925C22.741 28.5925 39.7931 28.5925 56.8298 28.5925C57.0003 28.5925 57.1863 28.5925 57.3569 28.5925C58.3025 28.5461 59.0621 27.8353 59.1551 26.9391C59.2481 26.0274 58.6435 25.1775 57.7289 24.9612C57.4654 24.8994 57.1864 24.8994 56.9228 24.8994C48.3657 24.8994 39.8242 24.8994 31.2826 24.8994ZM32.0577 23.0451C32.2747 23.0451 32.6157 23.0142 32.9568 23.0451C33.4838 23.1069 33.7009 22.9061 33.8094 22.3961C34.1349 20.8664 34.0884 19.3366 33.7939 17.8068C33.3753 15.7208 32.6002 13.7892 31.0655 12.244C29.4533 10.637 27.5931 10.6061 25.9344 12.1668C24.7252 13.3102 23.9966 14.7473 23.5006 16.308C23.4386 16.4779 23.4851 16.6943 23.4851 16.8797C23.4541 17.9459 23.5006 19.0276 23.3611 20.0938C23.237 21.0672 22.9115 22.0253 22.679 23.0142C22.741 23.0297 22.8185 23.0451 22.896 23.0451C25.0973 23.0451 27.3141 23.0297 29.5153 23.0606C29.9184 23.0606 30.0424 22.8288 30.0734 22.5507C30.1664 21.469 30.2594 20.3719 30.2594 19.2902C30.2594 18.5949 30.4765 18.1468 31.0345 18.0695C31.6391 17.9768 32.0887 18.3322 32.1042 19.0585C32.1352 20.3564 32.0732 21.6853 32.0577 23.0451ZM9.06825 23.0451C11.4246 23.0451 13.7188 23.0451 16.0131 23.0297C16.1682 23.0297 16.3697 22.9061 16.4627 22.767C16.6952 22.4425 16.8657 22.0716 17.0828 21.7317C17.3618 21.299 17.8579 21.1754 18.2919 21.4072C18.726 21.639 18.8965 22.1026 18.7105 22.5816C18.664 22.7206 18.602 22.8597 18.5245 23.0451C19.1445 23.0451 19.7026 23.0606 20.2607 23.0297C20.4002 23.0142 20.6172 22.8752 20.6792 22.7361C21.4233 21.0363 21.8574 19.2748 21.6869 17.4051C21.4078 14.3146 19.4856 12.9239 16.5867 13.8356C13.0678 14.9482 10.665 17.3433 9.23878 20.7273C8.94424 21.4536 8.82022 22.2262 9.06825 23.0451ZM43.5756 23.0451C43.4981 22.8134 43.4361 22.6434 43.3586 22.458C42.8315 20.99 42.475 19.5066 42.506 17.9459C42.5215 17.1887 43.0641 16.7715 43.7306 17.0188C44.2577 17.2042 44.3662 17.6369 44.3662 18.1313C44.3817 19.7229 44.8003 21.2063 45.4669 22.6434C45.5444 22.7979 45.7459 23.0142 45.8854 23.0297C47.1876 23.0606 48.5052 23.0451 49.9934 23.0451C49.4664 22.2571 49.0478 21.5772 48.5828 20.9282C48.1952 20.3874 48.2107 19.8156 48.6448 19.4911C49.0788 19.1512 49.6834 19.2439 50.0399 19.8002C50.6445 20.7273 51.1871 21.7162 51.7607 22.6588C51.8537 22.7979 51.9777 23.0142 52.1172 23.0297C52.5823 23.076 53.0628 23.0451 53.5589 23.0451C53.3884 21.3145 52.5513 19.9701 51.5591 18.734C49.9314 16.7097 47.9627 15.1181 45.3273 14.5619C43.3586 14.1446 41.8704 15.01 41.2503 16.8951C40.5992 18.8885 40.9093 20.8509 41.5294 22.7979C41.5604 22.9061 41.7619 23.0451 41.9014 23.0451C42.444 23.0606 42.9865 23.0451 43.5756 23.0451ZM29.9649 9.38536C32.6157 10.4207 33.9179 12.5994 34.9875 15.0872C35.3751 14.531 35.7316 14.0983 36.0107 13.6193C37.4213 11.2705 38.2584 8.76727 37.8709 5.98586C37.5609 3.76074 36.1037 2.47821 34.0264 2.72544C31.081 3.08084 28.9573 4.82695 27.1125 6.99026C27.5156 7.53109 27.8876 8.02556 28.2597 8.52003C28.5852 8.13373 28.8798 7.76287 29.1898 7.42292C30.43 6.09403 31.8406 4.99692 33.5149 4.28612C34.0574 4.05433 34.569 4.25521 34.7705 4.73423C34.972 5.1978 34.786 5.66137 34.29 5.93951C34.1504 6.01677 34.0109 6.07858 33.8714 6.14039C32.3522 6.913 31.081 7.99465 29.9649 9.38536ZM42.382 49.9166C34.9255 49.9166 27.5156 49.9166 20.1057 49.9166C20.1212 51.4773 21.3303 52.6516 22.9115 52.6516C25.4228 52.6671 27.9496 52.6516 30.461 52.6516C33.4993 52.6516 36.5377 52.6671 39.5761 52.6516C41.1728 52.6516 42.3665 51.4773 42.382 49.9166ZM26.6475 9.47807C26.3529 9.07631 26.0894 8.69001 25.7949 8.35006C24.1827 6.43398 22.2914 4.91966 19.7646 4.37883C18.1834 4.03888 16.8502 4.50245 16.1216 5.75408C14.9125 7.79378 15.238 9.94164 15.7806 12.1204C16.4162 11.9813 16.9743 11.8577 17.4548 11.765C17.2688 10.5906 17.0983 9.47807 16.9277 8.36551C16.8967 8.18008 16.8967 7.9792 16.9122 7.79378C16.9433 7.20659 17.3153 6.80483 17.8269 6.78938C18.3384 6.77393 18.6795 7.16023 18.7725 7.76287C18.9895 9.02995 19.2375 10.2816 19.5011 11.5487C19.5321 11.7186 19.6716 11.935 19.8111 11.9813C20.8963 12.3367 21.7644 12.9703 22.462 13.9129C22.648 13.5729 22.772 13.2484 22.9735 13.0166C23.7331 12.1822 23.7486 11.4405 22.9115 10.637C22.5085 10.2507 22.648 9.67895 23.0355 9.35445C23.4386 9.02995 23.9966 9.10722 24.3687 9.53988C24.6167 9.83347 24.8338 10.1425 25.0663 10.4516C25.5778 10.1116 26.0739 9.81802 26.6475 9.47807ZM43.0021 12.7694C42.506 11.4405 41.2503 10.7142 39.7466 10.8379C39.3901 10.8688 39.2196 11.0078 39.1111 11.3478C38.429 13.4338 37.3748 15.3345 35.7781 16.8951C35.6696 17.0033 35.5921 17.2351 35.6076 17.3896C35.9642 19.2593 36.0417 21.1291 35.5611 23.0142C36.9253 23.0142 38.2584 23.0142 39.4986 23.0142C39.3436 21.6699 39.0646 20.3564 39.0801 19.043C39.1266 16.2307 39.9792 13.8201 43.0021 12.7694Z"/>
</mask>
<path d="M1.48779 26.0583C1.5653 25.8729 1.64281 25.672 1.72032 25.4866C2.24739 24.065 3.56506 23.1069 5.08425 23.0606C5.73533 23.0451 6.40192 23.0606 7.02199 23.0606C7.19252 18.394 9.96737 15.4735 13.6103 13.1403C13.7343 13.063 13.8739 12.9857 13.8739 12.9857C13.7343 11.4096 13.5018 9.92618 13.5018 8.44277C13.5018 7.54654 13.7343 6.60395 14.0599 5.75408C15.0985 3.06539 17.5788 1.90647 20.5397 2.64818C22.3379 3.09629 23.8881 4.02343 25.2988 5.1978C25.4538 5.33687 25.6244 5.47594 25.7639 5.58411C26.632 4.79604 27.4381 3.96162 28.3527 3.25082C30.1199 1.87557 32.0732 0.871172 34.383 0.840268C36.7548 0.809363 38.5995 2.0919 39.3901 4.33247C39.8397 5.58411 39.9482 6.88209 39.8086 8.21099C39.7776 8.44277 39.7621 8.6591 39.7466 8.92179C40.2582 8.9836 40.7388 8.99905 41.2038 9.09176C42.9866 9.44717 44.1647 10.5443 44.8313 12.1822C44.9708 12.5222 45.1413 12.6458 45.4824 12.6921C48.5828 13.2175 50.9236 15.01 52.8768 17.3433C54.2565 18.9812 55.2641 20.8046 55.4656 23.076C58.039 22.8134 60.2867 23.2151 61.0463 26.1665C61.0463 26.5837 61.0463 27.0164 61.0463 27.4336C60.9843 27.5726 60.9223 27.7117 60.8758 27.8508C60.4728 29.0406 59.6822 29.8596 58.473 30.2459C58.101 30.354 57.9614 30.5704 57.8529 30.8949C56.8298 33.9699 55.7912 37.0294 54.7835 40.1044C53.7914 43.1176 52.0397 45.5591 49.4199 47.3824C47.8852 48.4641 46.18 49.1594 44.3352 49.5766C44.3197 49.7775 44.3197 49.9475 44.3042 50.1175C44.1802 52.5126 42.2115 54.475 39.8086 54.4904C34.1349 54.5214 28.4612 54.5214 22.772 54.4904C20.6017 54.475 18.7725 52.8834 18.3694 50.751C18.2919 50.3647 18.2764 49.9629 18.2299 49.5766C18.0904 49.5303 17.9819 49.4994 17.8579 49.4685C12.8197 48.1396 9.48681 44.9873 7.81259 40.1044C6.78946 37.1221 5.78184 34.1244 4.80521 31.1267C4.63469 30.6167 4.40216 30.354 3.8906 30.1841C2.83646 29.8132 2.12337 29.0406 1.73582 27.9744C1.67382 27.8044 1.59631 27.6345 1.5188 27.449C1.48779 26.9855 1.48779 26.5219 1.48779 26.0583ZM6.52593 30.4777C6.58794 30.7094 6.64995 30.8949 6.69645 31.0649C7.65757 33.9235 8.60319 36.7976 9.57982 39.6563C11.3315 44.8173 15.8116 48.0314 21.2838 48.0314C27.9341 48.0314 34.569 48.0314 41.2193 48.0314C46.6605 48.0314 51.1561 44.8328 52.8923 39.7027C53.8689 36.7976 54.8456 33.8926 55.8067 31.003C55.8532 30.8485 55.8997 30.6785 55.9617 30.4777C39.4831 30.4777 23.051 30.4777 6.52593 30.4777ZM31.2826 24.8994C22.7565 24.8994 14.2304 24.8994 5.70433 24.8994C5.5183 24.8994 5.31678 24.8994 5.13075 24.8994C4.20064 24.9458 3.44104 25.6875 3.36353 26.5837C3.28602 27.5108 3.9371 28.3916 4.88272 28.5616C5.14626 28.6079 5.42529 28.5925 5.68883 28.5925C22.741 28.5925 39.7931 28.5925 56.8298 28.5925C57.0003 28.5925 57.1863 28.5925 57.3569 28.5925C58.3025 28.5461 59.0621 27.8353 59.1551 26.9391C59.2481 26.0274 58.6435 25.1775 57.7289 24.9612C57.4654 24.8994 57.1864 24.8994 56.9228 24.8994C48.3657 24.8994 39.8242 24.8994 31.2826 24.8994ZM32.0577 23.0451C32.2747 23.0451 32.6157 23.0142 32.9568 23.0451C33.4838 23.1069 33.7009 22.9061 33.8094 22.3961C34.1349 20.8664 34.0884 19.3366 33.7939 17.8068C33.3753 15.7208 32.6002 13.7892 31.0655 12.244C29.4533 10.637 27.5931 10.6061 25.9344 12.1668C24.7252 13.3102 23.9966 14.7473 23.5006 16.308C23.4386 16.4779 23.4851 16.6943 23.4851 16.8797C23.4541 17.9459 23.5006 19.0276 23.3611 20.0938C23.237 21.0672 22.9115 22.0253 22.679 23.0142C22.741 23.0297 22.8185 23.0451 22.896 23.0451C25.0973 23.0451 27.3141 23.0297 29.5153 23.0606C29.9184 23.0606 30.0424 22.8288 30.0734 22.5507C30.1664 21.469 30.2594 20.3719 30.2594 19.2902C30.2594 18.5949 30.4765 18.1468 31.0345 18.0695C31.6391 17.9768 32.0887 18.3322 32.1042 19.0585C32.1352 20.3564 32.0732 21.6853 32.0577 23.0451ZM9.06825 23.0451C11.4246 23.0451 13.7188 23.0451 16.0131 23.0297C16.1682 23.0297 16.3697 22.9061 16.4627 22.767C16.6952 22.4425 16.8657 22.0716 17.0828 21.7317C17.3618 21.299 17.8579 21.1754 18.2919 21.4072C18.726 21.639 18.8965 22.1026 18.7105 22.5816C18.664 22.7206 18.602 22.8597 18.5245 23.0451C19.1445 23.0451 19.7026 23.0606 20.2607 23.0297C20.4002 23.0142 20.6172 22.8752 20.6792 22.7361C21.4233 21.0363 21.8574 19.2748 21.6869 17.4051C21.4078 14.3146 19.4856 12.9239 16.5867 13.8356C13.0678 14.9482 10.665 17.3433 9.23878 20.7273C8.94424 21.4536 8.82022 22.2262 9.06825 23.0451ZM43.5756 23.0451C43.4981 22.8134 43.4361 22.6434 43.3586 22.458C42.8315 20.99 42.475 19.5066 42.506 17.9459C42.5215 17.1887 43.0641 16.7715 43.7306 17.0188C44.2577 17.2042 44.3662 17.6369 44.3662 18.1313C44.3817 19.7229 44.8003 21.2063 45.4669 22.6434C45.5444 22.7979 45.7459 23.0142 45.8854 23.0297C47.1876 23.0606 48.5052 23.0451 49.9934 23.0451C49.4664 22.2571 49.0478 21.5772 48.5828 20.9282C48.1952 20.3874 48.2107 19.8156 48.6448 19.4911C49.0788 19.1512 49.6834 19.2439 50.0399 19.8002C50.6445 20.7273 51.1871 21.7162 51.7607 22.6588C51.8537 22.7979 51.9777 23.0142 52.1172 23.0297C52.5823 23.076 53.0628 23.0451 53.5589 23.0451C53.3884 21.3145 52.5513 19.9701 51.5591 18.734C49.9314 16.7097 47.9627 15.1181 45.3273 14.5619C43.3586 14.1446 41.8704 15.01 41.2503 16.8951C40.5992 18.8885 40.9093 20.8509 41.5294 22.7979C41.5604 22.9061 41.7619 23.0451 41.9014 23.0451C42.444 23.0606 42.9865 23.0451 43.5756 23.0451ZM29.9649 9.38536C32.6157 10.4207 33.9179 12.5994 34.9875 15.0872C35.3751 14.531 35.7316 14.0983 36.0107 13.6193C37.4213 11.2705 38.2584 8.76727 37.8709 5.98586C37.5609 3.76074 36.1037 2.47821 34.0264 2.72544C31.081 3.08084 28.9573 4.82695 27.1125 6.99026C27.5156 7.53109 27.8876 8.02556 28.2597 8.52003C28.5852 8.13373 28.8798 7.76287 29.1898 7.42292C30.43 6.09403 31.8406 4.99692 33.5149 4.28612C34.0574 4.05433 34.569 4.25521 34.7705 4.73423C34.972 5.1978 34.786 5.66137 34.29 5.93951C34.1504 6.01677 34.0109 6.07858 33.8714 6.14039C32.3522 6.913 31.081 7.99465 29.9649 9.38536ZM42.382 49.9166C34.9255 49.9166 27.5156 49.9166 20.1057 49.9166C20.1212 51.4773 21.3303 52.6516 22.9115 52.6516C25.4228 52.6671 27.9496 52.6516 30.461 52.6516C33.4993 52.6516 36.5377 52.6671 39.5761 52.6516C41.1728 52.6516 42.3665 51.4773 42.382 49.9166ZM26.6475 9.47807C26.3529 9.07631 26.0894 8.69001 25.7949 8.35006C24.1827 6.43398 22.2914 4.91966 19.7646 4.37883C18.1834 4.03888 16.8502 4.50245 16.1216 5.75408C14.9125 7.79378 15.238 9.94164 15.7806 12.1204C16.4162 11.9813 16.9743 11.8577 17.4548 11.765C17.2688 10.5906 17.0983 9.47807 16.9277 8.36551C16.8967 8.18008 16.8967 7.9792 16.9122 7.79378C16.9433 7.20659 17.3153 6.80483 17.8269 6.78938C18.3384 6.77393 18.6795 7.16023 18.7725 7.76287C18.9895 9.02995 19.2375 10.2816 19.5011 11.5487C19.5321 11.7186 19.6716 11.935 19.8111 11.9813C20.8963 12.3367 21.7644 12.9703 22.462 13.9129C22.648 13.5729 22.772 13.2484 22.9735 13.0166C23.7331 12.1822 23.7486 11.4405 22.9115 10.637C22.5085 10.2507 22.648 9.67895 23.0355 9.35445C23.4386 9.02995 23.9966 9.10722 24.3687 9.53988C24.6167 9.83347 24.8338 10.1425 25.0663 10.4516C25.5778 10.1116 26.0739 9.81802 26.6475 9.47807ZM43.0021 12.7694C42.506 11.4405 41.2503 10.7142 39.7466 10.8379C39.3901 10.8688 39.2196 11.0078 39.1111 11.3478C38.429 13.4338 37.3748 15.3345 35.7781 16.8951C35.6696 17.0033 35.5921 17.2351 35.6076 17.3896C35.9642 19.2593 36.0417 21.1291 35.5611 23.0142C36.9253 23.0142 38.2584 23.0142 39.4986 23.0142C39.3436 21.6699 39.0646 20.3564 39.0801 19.043C39.1266 16.2307 39.9792 13.8201 43.0021 12.7694Z" fill="#DFB760"/>
<path d="M1.48779 26.0583C1.5653 25.8729 1.64281 25.672 1.72032 25.4866C2.24739 24.065 3.56506 23.1069 5.08425 23.0606C5.73533 23.0451 6.40192 23.0606 7.02199 23.0606C7.19252 18.394 9.96737 15.4735 13.6103 13.1403C13.7343 13.063 13.8739 12.9857 13.8739 12.9857C13.7343 11.4096 13.5018 9.92618 13.5018 8.44277C13.5018 7.54654 13.7343 6.60395 14.0599 5.75408C15.0985 3.06539 17.5788 1.90647 20.5397 2.64818C22.3379 3.09629 23.8881 4.02343 25.2988 5.1978C25.4538 5.33687 25.6244 5.47594 25.7639 5.58411C26.632 4.79604 27.4381 3.96162 28.3527 3.25082C30.1199 1.87557 32.0732 0.871172 34.383 0.840268C36.7548 0.809363 38.5995 2.0919 39.3901 4.33247C39.8397 5.58411 39.9482 6.88209 39.8086 8.21099C39.7776 8.44277 39.7621 8.6591 39.7466 8.92179C40.2582 8.9836 40.7388 8.99905 41.2038 9.09176C42.9866 9.44717 44.1647 10.5443 44.8313 12.1822C44.9708 12.5222 45.1413 12.6458 45.4824 12.6921C48.5828 13.2175 50.9236 15.01 52.8768 17.3433C54.2565 18.9812 55.2641 20.8046 55.4656 23.076C58.039 22.8134 60.2867 23.2151 61.0463 26.1665C61.0463 26.5837 61.0463 27.0164 61.0463 27.4336C60.9843 27.5726 60.9223 27.7117 60.8758 27.8508C60.4728 29.0406 59.6822 29.8596 58.473 30.2459C58.101 30.354 57.9614 30.5704 57.8529 30.8949C56.8298 33.9699 55.7912 37.0294 54.7835 40.1044C53.7914 43.1176 52.0397 45.5591 49.4199 47.3824C47.8852 48.4641 46.18 49.1594 44.3352 49.5766C44.3197 49.7775 44.3197 49.9475 44.3042 50.1175C44.1802 52.5126 42.2115 54.475 39.8086 54.4904C34.1349 54.5214 28.4612 54.5214 22.772 54.4904C20.6017 54.475 18.7725 52.8834 18.3694 50.751C18.2919 50.3647 18.2764 49.9629 18.2299 49.5766C18.0904 49.5303 17.9819 49.4994 17.8579 49.4685C12.8197 48.1396 9.48681 44.9873 7.81259 40.1044C6.78946 37.1221 5.78184 34.1244 4.80521 31.1267C4.63469 30.6167 4.40216 30.354 3.8906 30.1841C2.83646 29.8132 2.12337 29.0406 1.73582 27.9744C1.67382 27.8044 1.59631 27.6345 1.5188 27.449C1.48779 26.9855 1.48779 26.5219 1.48779 26.0583ZM6.52593 30.4777C6.58794 30.7094 6.64995 30.8949 6.69645 31.0649C7.65757 33.9235 8.60319 36.7976 9.57982 39.6563C11.3315 44.8173 15.8116 48.0314 21.2838 48.0314C27.9341 48.0314 34.569 48.0314 41.2193 48.0314C46.6605 48.0314 51.1561 44.8328 52.8923 39.7027C53.8689 36.7976 54.8456 33.8926 55.8067 31.003C55.8532 30.8485 55.8997 30.6785 55.9617 30.4777C39.4831 30.4777 23.051 30.4777 6.52593 30.4777ZM31.2826 24.8994C22.7565 24.8994 14.2304 24.8994 5.70433 24.8994C5.5183 24.8994 5.31678 24.8994 5.13075 24.8994C4.20064 24.9458 3.44104 25.6875 3.36353 26.5837C3.28602 27.5108 3.9371 28.3916 4.88272 28.5616C5.14626 28.6079 5.42529 28.5925 5.68883 28.5925C22.741 28.5925 39.7931 28.5925 56.8298 28.5925C57.0003 28.5925 57.1863 28.5925 57.3569 28.5925C58.3025 28.5461 59.0621 27.8353 59.1551 26.9391C59.2481 26.0274 58.6435 25.1775 57.7289 24.9612C57.4654 24.8994 57.1864 24.8994 56.9228 24.8994C48.3657 24.8994 39.8242 24.8994 31.2826 24.8994ZM32.0577 23.0451C32.2747 23.0451 32.6157 23.0142 32.9568 23.0451C33.4838 23.1069 33.7009 22.9061 33.8094 22.3961C34.1349 20.8664 34.0884 19.3366 33.7939 17.8068C33.3753 15.7208 32.6002 13.7892 31.0655 12.244C29.4533 10.637 27.5931 10.6061 25.9344 12.1668C24.7252 13.3102 23.9966 14.7473 23.5006 16.308C23.4386 16.4779 23.4851 16.6943 23.4851 16.8797C23.4541 17.9459 23.5006 19.0276 23.3611 20.0938C23.237 21.0672 22.9115 22.0253 22.679 23.0142C22.741 23.0297 22.8185 23.0451 22.896 23.0451C25.0973 23.0451 27.3141 23.0297 29.5153 23.0606C29.9184 23.0606 30.0424 22.8288 30.0734 22.5507C30.1664 21.469 30.2594 20.3719 30.2594 19.2902C30.2594 18.5949 30.4765 18.1468 31.0345 18.0695C31.6391 17.9768 32.0887 18.3322 32.1042 19.0585C32.1352 20.3564 32.0732 21.6853 32.0577 23.0451ZM9.06825 23.0451C11.4246 23.0451 13.7188 23.0451 16.0131 23.0297C16.1682 23.0297 16.3697 22.9061 16.4627 22.767C16.6952 22.4425 16.8657 22.0716 17.0828 21.7317C17.3618 21.299 17.8579 21.1754 18.2919 21.4072C18.726 21.639 18.8965 22.1026 18.7105 22.5816C18.664 22.7206 18.602 22.8597 18.5245 23.0451C19.1445 23.0451 19.7026 23.0606 20.2607 23.0297C20.4002 23.0142 20.6172 22.8752 20.6792 22.7361C21.4233 21.0363 21.8574 19.2748 21.6869 17.4051C21.4078 14.3146 19.4856 12.9239 16.5867 13.8356C13.0678 14.9482 10.665 17.3433 9.23878 20.7273C8.94424 21.4536 8.82022 22.2262 9.06825 23.0451ZM43.5756 23.0451C43.4981 22.8134 43.4361 22.6434 43.3586 22.458C42.8315 20.99 42.475 19.5066 42.506 17.9459C42.5215 17.1887 43.0641 16.7715 43.7306 17.0188C44.2577 17.2042 44.3662 17.6369 44.3662 18.1313C44.3817 19.7229 44.8003 21.2063 45.4669 22.6434C45.5444 22.7979 45.7459 23.0142 45.8854 23.0297C47.1876 23.0606 48.5052 23.0451 49.9934 23.0451C49.4664 22.2571 49.0478 21.5772 48.5828 20.9282C48.1952 20.3874 48.2107 19.8156 48.6448 19.4911C49.0788 19.1512 49.6834 19.2439 50.0399 19.8002C50.6445 20.7273 51.1871 21.7162 51.7607 22.6588C51.8537 22.7979 51.9777 23.0142 52.1172 23.0297C52.5823 23.076 53.0628 23.0451 53.5589 23.0451C53.3884 21.3145 52.5513 19.9701 51.5591 18.734C49.9314 16.7097 47.9627 15.1181 45.3273 14.5619C43.3586 14.1446 41.8704 15.01 41.2503 16.8951C40.5992 18.8885 40.9093 20.8509 41.5294 22.7979C41.5604 22.9061 41.7619 23.0451 41.9014 23.0451C42.444 23.0606 42.9865 23.0451 43.5756 23.0451ZM29.9649 9.38536C32.6157 10.4207 33.9179 12.5994 34.9875 15.0872C35.3751 14.531 35.7316 14.0983 36.0107 13.6193C37.4213 11.2705 38.2584 8.76727 37.8709 5.98586C37.5609 3.76074 36.1037 2.47821 34.0264 2.72544C31.081 3.08084 28.9573 4.82695 27.1125 6.99026C27.5156 7.53109 27.8876 8.02556 28.2597 8.52003C28.5852 8.13373 28.8798 7.76287 29.1898 7.42292C30.43 6.09403 31.8406 4.99692 33.5149 4.28612C34.0574 4.05433 34.569 4.25521 34.7705 4.73423C34.972 5.1978 34.786 5.66137 34.29 5.93951C34.1504 6.01677 34.0109 6.07858 33.8714 6.14039C32.3522 6.913 31.081 7.99465 29.9649 9.38536ZM42.382 49.9166C34.9255 49.9166 27.5156 49.9166 20.1057 49.9166C20.1212 51.4773 21.3303 52.6516 22.9115 52.6516C25.4228 52.6671 27.9496 52.6516 30.461 52.6516C33.4993 52.6516 36.5377 52.6671 39.5761 52.6516C41.1728 52.6516 42.3665 51.4773 42.382 49.9166ZM26.6475 9.47807C26.3529 9.07631 26.0894 8.69001 25.7949 8.35006C24.1827 6.43398 22.2914 4.91966 19.7646 4.37883C18.1834 4.03888 16.8502 4.50245 16.1216 5.75408C14.9125 7.79378 15.238 9.94164 15.7806 12.1204C16.4162 11.9813 16.9743 11.8577 17.4548 11.765C17.2688 10.5906 17.0983 9.47807 16.9277 8.36551C16.8967 8.18008 16.8967 7.9792 16.9122 7.79378C16.9433 7.20659 17.3153 6.80483 17.8269 6.78938C18.3384 6.77393 18.6795 7.16023 18.7725 7.76287C18.9895 9.02995 19.2375 10.2816 19.5011 11.5487C19.5321 11.7186 19.6716 11.935 19.8111 11.9813C20.8963 12.3367 21.7644 12.9703 22.462 13.9129C22.648 13.5729 22.772 13.2484 22.9735 13.0166C23.7331 12.1822 23.7486 11.4405 22.9115 10.637C22.5085 10.2507 22.648 9.67895 23.0355 9.35445C23.4386 9.02995 23.9966 9.10722 24.3687 9.53988C24.6167 9.83347 24.8338 10.1425 25.0663 10.4516C25.5778 10.1116 26.0739 9.81802 26.6475 9.47807ZM43.0021 12.7694C42.506 11.4405 41.2503 10.7142 39.7466 10.8379C39.3901 10.8688 39.2196 11.0078 39.1111 11.3478C38.429 13.4338 37.3748 15.3345 35.7781 16.8951C35.6696 17.0033 35.5921 17.2351 35.6076 17.3896C35.9642 19.2593 36.0417 21.1291 35.5611 23.0142C36.9253 23.0142 38.2584 23.0142 39.4986 23.0142C39.3436 21.6699 39.0646 20.3564 39.0801 19.043C39.1266 16.2307 39.9792 13.8201 43.0021 12.7694Z" stroke="#DFB760" stroke-width="1.09348" mask="url(#path-1-outside-1_230_914)"/>
</svg>
