<svg width="58" height="50" viewBox="0 0 58 50" fill="none" xmlns="http://www.w3.org/2000/svg">
<g clip-path="url(#clip0_230_896)">
<path d="M58 16.0702C58 16.4364 58 16.8173 58 17.1836C57.9703 17.2568 57.9258 17.3154 57.9258 17.3886C57.5247 20.2454 56.0098 22.355 53.4254 23.6881C53.0838 23.8639 53.0095 24.0836 53.0095 24.4352C53.0244 32.3462 53.0095 40.2717 53.0095 48.1827C53.0095 49.4865 52.4897 49.9993 51.1678 49.9993C36.3744 49.9993 21.5959 49.9993 6.80258 49.9993C5.46584 49.9993 4.94599 49.4865 4.94599 48.1827C4.94599 40.2717 4.94599 32.3462 4.94599 24.4352C4.94599 24.0543 4.85687 23.8492 4.48555 23.6588C2.07941 22.4136 0.63869 20.4505 0.103991 17.8281C-0.103947 16.8466 -0.0148309 15.9383 0.534721 15.0007C3.23792 10.4007 5.89657 5.75665 8.54036 1.11265C9.00079 0.306903 9.58005 -0.0153944 10.5009 -0.000744485C13.1596 0.0285553 15.8331 0.0139054 18.4917 0.0139054C28.1163 0.0139054 37.7557 0.0285553 47.3803 -0.000744485C48.3754 -0.000744485 48.9844 0.350852 49.4597 1.20054C52.2817 6.16685 55.1483 11.1185 58 16.0702ZM12.8328 47.1718C12.8328 46.8642 12.8328 46.6298 12.8328 46.3807C12.8328 41.7221 12.8625 37.0634 12.818 32.4048C12.7882 29.4455 14.8379 27.4531 17.1698 27.3066C18.9521 27.1894 20.7493 27.292 22.5465 27.3213C22.7247 27.3213 22.9178 27.3799 23.0961 27.4238C25.3537 28.0684 26.7053 29.8703 26.7053 32.2583C26.7201 37.0048 26.7053 41.766 26.7053 46.5126C26.7053 46.7323 26.7053 46.9374 26.7053 47.1572C34.5624 47.1572 42.3304 47.1572 50.1132 47.1572C50.1132 39.6271 50.1132 32.1264 50.1132 24.611C47.009 24.6696 44.588 23.4537 42.7611 21.0072C41.0382 23.3072 38.7806 24.5817 35.8991 24.5964C33.0028 24.611 30.7304 23.3218 29.0075 21.0511C25.2497 26.1786 18.1352 25.3582 15.1795 21.0218C13.3526 23.4537 10.9168 24.6696 7.81257 24.611C7.81257 32.1557 7.81257 39.6565 7.81257 47.1865C9.47608 47.1718 11.1099 47.1718 12.8328 47.1718ZM4.15879 14.488C20.7345 14.488 37.2507 14.488 53.8116 14.488C53.7521 14.3708 53.7224 14.2975 53.6927 14.2389C51.5688 10.5472 49.4448 6.87004 47.3209 3.16363C47.1278 2.82668 46.8753 2.82668 46.5634 2.82668C34.8297 2.82668 23.1109 2.82668 11.3772 2.81203C10.9614 2.81203 10.7386 2.92923 10.5455 3.29548C8.51065 6.88469 6.46097 10.4446 4.41129 14.0045C4.32217 14.151 4.26276 14.2975 4.15879 14.488ZM23.8535 47.1572C23.8684 47.0253 23.8833 46.9228 23.8833 46.8056C23.8833 41.9125 23.8833 37.0195 23.8833 32.1264C23.8833 30.8958 23.0366 30.0754 21.7742 30.0461C20.5711 30.0315 19.3532 30.0461 18.1501 30.0461C16.442 30.0461 15.6994 30.764 15.6994 32.4487C15.6994 37.1367 15.6994 41.8246 15.6994 46.5272C15.6994 46.7323 15.6994 46.9228 15.6994 47.1572C18.4471 47.1572 21.1355 47.1572 23.8535 47.1572ZM2.94087 17.3593C3.47557 20.0989 5.85201 21.9155 8.61462 21.7543C11.1247 21.6078 13.4121 19.6008 13.5903 17.3593C10.0553 17.3593 6.52038 17.3593 2.94087 17.3593ZM16.7688 17.3593C17.1104 19.9817 19.7096 21.9448 22.5317 21.7543C25.3537 21.5639 27.3291 19.1173 27.3737 17.3593C23.8387 17.3593 20.3186 17.3593 16.7688 17.3593ZM41.2164 17.3886C37.6518 17.3886 34.1168 17.3886 30.5818 17.3886C30.8789 19.7619 33.1662 21.6957 35.7506 21.769C38.4092 21.8422 40.7411 19.9963 41.2164 17.3886ZM44.3652 17.3886C44.6028 19.7912 47.0684 21.7983 49.7122 21.7836C52.3411 21.7543 54.8067 19.7033 54.9701 17.3886C51.45 17.3886 47.915 17.3886 44.3652 17.3886Z" fill="#DFB760"/>
<path d="M37.236 40.9171C36.0032 40.9171 34.7853 40.9318 33.5525 40.9171C31.0275 40.8878 29.4235 39.3203 29.4086 36.8298C29.3937 34.9986 29.3937 33.182 29.4086 31.3507C29.4235 28.8456 31.0573 27.2488 33.6119 27.2488C36.0478 27.2488 38.4836 27.2488 40.9195 27.2488C43.4593 27.2488 45.0783 28.8603 45.0931 31.38C45.108 33.182 45.108 34.9986 45.0931 36.8005C45.0783 39.3203 43.4742 40.9025 40.9195 40.9171C39.6867 40.9171 38.4688 40.9171 37.236 40.9171ZM37.2211 38.1043C38.4688 38.1043 39.7164 38.1043 40.964 38.1043C41.8552 38.1043 42.2562 37.7234 42.2562 36.8591C42.2711 35.0132 42.2562 33.1673 42.2562 31.3361C42.2562 30.4424 41.8552 30.0616 40.9343 30.0616C38.4836 30.0616 36.0329 30.0616 33.5822 30.0616C32.6614 30.0616 32.2752 30.4425 32.2603 31.3507C32.2603 33.1673 32.2603 34.9986 32.2603 36.8151C32.2603 37.7527 32.6316 38.1043 33.6119 38.119C34.815 38.1043 36.0181 38.1043 37.2211 38.1043Z" fill="#DFB760"/>
</g>
<defs>
<clipPath id="clip0_230_896">
<rect width="58" height="50" fill="white"/>
</clipPath>
</defs>
</svg>
