<svg width="56" height="53" viewBox="0 0 56 53" fill="none" xmlns="http://www.w3.org/2000/svg">
<path d="M56.0008 30.8673C55.7962 31.9644 55.6647 33.0616 55.4016 34.1295C54.3787 38.167 51.9966 41.3122 48.8254 43.9015C43.7252 48.0561 38.0112 50.9672 31.5812 52.4008C28.673 53.0445 25.7357 53.2639 22.8129 52.4886C19.6125 51.6401 17.3912 49.6945 16.2367 46.5493C16.1782 46.3738 15.9883 46.1543 15.8275 46.1251C13.1532 45.6277 11.0342 44.1648 9.19286 42.2484C6.38701 39.3373 4.50184 35.8557 3.01123 32.1253C1.09683 27.2832 -0.0722739 22.2802 0.000794975 17.0285C0.103091 9.09967 6.19704 1.91695 13.9131 0.337041C22.1699 -1.3599 31.1866 3.58463 33.8463 12.4643C33.8901 12.6398 33.9632 12.8007 33.9924 12.9178C35.1469 12.7422 36.2576 12.5228 37.3682 12.4204C46.0634 11.6012 53.9695 17.5551 55.6354 26.1422C55.767 26.8444 55.8693 27.5465 55.9862 28.2487C56.0008 29.1118 56.0008 29.9895 56.0008 30.8673ZM27.1824 49.6799C27.5916 49.6506 28.3661 49.5921 29.1553 49.5043C29.4768 49.475 29.7983 49.4165 30.1198 49.3434C36.4329 48.0707 42.0008 45.2766 46.9549 41.1805C50.2137 38.4888 52.3181 35.1389 52.6542 30.838C53.005 26.4201 51.6751 22.5289 48.4747 19.4568C42.8338 14.0588 33.8901 14.3807 28.4684 20.0859C24.1428 24.6354 21.2931 30.0334 19.5979 36.0458C18.8818 38.5766 18.5164 41.1659 18.9256 43.7991C19.3056 46.2567 20.4455 48.1585 22.886 49.0654C24.1574 49.5482 25.4726 49.6799 27.1824 49.6799ZM15.3599 42.5849C15.5499 40.8295 15.6229 39.1033 15.9444 37.4209C17.1281 31.35 19.7586 25.9081 23.4121 20.9636C25.3849 18.3012 27.6208 15.9167 30.6167 14.3807C30.9235 14.2197 30.8797 14.0296 30.8212 13.7955C28.6584 5.79357 20.0071 1.15625 12.3056 4.25755C6.34317 6.65666 2.83587 12.4204 3.30351 19.0472C3.68347 24.4452 5.14484 29.536 7.62919 34.3197C8.95904 36.8797 10.5373 39.2642 12.8025 41.1074C13.5916 41.7511 14.4538 42.2923 15.3599 42.5849Z" fill="#DFB760"/>
<path d="M43.7967 31.744C41.2977 31.5538 39.2226 30.0909 37.732 27.7064C36.9136 26.4045 36.5044 24.9855 36.7236 23.4202C37.0597 21.1235 38.8718 19.5728 41.1954 19.6021C44.9365 19.646 48.6338 23.2447 48.7654 26.9896C48.8677 29.7252 46.9094 31.744 43.7967 31.744ZM44.1912 28.511C45.1119 28.4525 45.5942 27.882 45.4773 26.9311C45.2434 25.0586 43.3729 23.1715 41.5023 22.9228C40.4063 22.7765 39.7779 23.4202 39.9971 24.5174C40.3478 26.2728 41.4292 27.4285 43.0075 28.1599C43.3583 28.3355 43.7821 28.394 44.1912 28.511Z" fill="#DFB760"/>
<path d="M25.1204 45.4951C24.4189 44.7783 23.6736 44.0468 22.9722 43.3447C25.7926 40.5067 28.6569 37.6395 31.4628 34.8161C32.135 35.4744 32.8949 36.2497 33.611 36.9519C30.8198 39.7606 27.9555 42.6425 25.1204 45.4951Z" fill="#DFB760"/>
<path d="M27.8264 33.485C27.0957 32.7536 26.3504 32.0075 25.6489 31.3054C27.4026 29.5353 29.1855 27.7506 30.9537 25.9951C31.6406 26.6973 32.3859 27.458 33.1166 28.1894C31.3921 29.9156 29.6093 31.7003 27.8264 33.485Z" fill="#DFB760"/>
<path d="M42.468 37.537C40.7728 39.2339 39.063 40.9601 37.3532 42.6717C37.2947 42.7302 37.2216 42.7887 37.1924 42.818C36.4179 42.0427 35.6726 41.2966 34.9419 40.5652C36.6809 38.8243 38.4638 37.0396 40.2175 35.2842C40.9189 35.9864 41.6788 36.7471 42.468 37.537Z" fill="#DFB760"/>
<path d="M17.0418 16.9688C15.595 16.9688 14.0313 16.5592 12.6577 15.5645C9.93949 13.6042 9.88104 10.1372 12.4969 8.07454C15.0689 6.05577 19.4238 6.02651 22.0105 8.01602C24.7286 10.0933 24.6556 13.6335 21.8643 15.6084C20.5052 16.5885 18.9562 16.9688 17.0418 16.9688ZM17.3194 13.6774C18.284 13.6627 19.2046 13.4726 20.0084 12.902C20.9729 12.1998 20.9729 11.3514 20.023 10.6346C18.6201 9.56667 15.975 9.5813 14.5574 10.6492C13.6368 11.3514 13.6368 12.1998 14.5867 12.8874C15.3904 13.4872 16.3257 13.6774 17.3194 13.6774Z" fill="#DFB760"/>
<path d="M12.3478 20.2751C12.3478 22.8206 12.3478 25.3221 12.3478 27.8675C11.2664 27.8675 10.1996 27.8675 9.11816 27.8675C9.11816 25.3367 9.11816 22.8206 9.11816 20.2751C10.1704 20.2751 11.2225 20.2751 12.3478 20.2751Z" fill="#DFB760"/>
</svg>
